<svg xmlns="http://www.w3.org/2000/svg" viewBox="0 0 43.08 40.17"><g id="Primary"><path d="M24.73,31.46,20.49,29v1.57H11.72v-7a3.8,3.8,0,0,0-2.76-4,3.8,3.8,0,0,0,2.76-4V9.82H17V8H9.87v6.75c0,2.33-.76,3.12-2.9,3.12H6.26v3.44H7c2.14,0,2.9.79,2.9,3.12v8H20.49V33.9Z" style="fill:#66a5ad"/><path d="M36.11,19.11c-2.14,0-2.89-.79-2.89-3.12V8H22.59V6.26L18.36,8.71l4.23,2.44V9.82h8.77v7a3.8,3.8,0,0,0,2.76,4,3.79,3.79,0,0,0-2.76,4v5.77H26.07v1.82h7.15V25.67c0-2.34.75-3.13,2.89-3.13h.71V19.11Z" style="fill:#3b495b"/><polygon points="26.08 13.33 23.07 13.33 23.07 18.69 26.08 21.7 26.08 13.33" style="fill:#66a5ad"/><path d="M21.28,24.12a3.3,3.3,0,0,1-2.43-1.33L17,24.84a5.45,5.45,0,0,0,4.36,2,4.73,4.73,0,0,0,3.46-1.24A4.84,4.84,0,0,0,26.08,22V21.7l-3-3v3.22C23.07,23.45,22.39,24.12,21.28,24.12Z" style="fill:#3b495b"/></g></svg>