<svg xmlns="http://www.w3.org/2000/svg" viewBox="0 0 171.09 58.11"><g id="Primary-2" data-name="Primary"><path d="M51.93,22.1h5.28c4.25,0,7.18,2.91,7.18,6.72v0c0,3.8-2.93,6.76-7.18,6.76H51.93Zm3,2.68v8.15h2.3a3.85,3.85,0,0,0,4.07-4v0a3.88,3.88,0,0,0-4.07-4.08Z" style="fill:#3b495b"/><path d="M66.23,30.5v0a5.16,5.16,0,0,1,5.12-5.39c3.45,0,5,2.69,5,5.62,0,.23,0,.51,0,.78H69.14a2.4,2.4,0,0,0,2.53,2,3.43,3.43,0,0,0,2.52-1.06l1.68,1.49a5.47,5.47,0,0,1-9.64-3.42Zm7.3-.87a2.22,2.22,0,0,0-2.18-2.2,2.3,2.3,0,0,0-2.24,2.2Z" style="fill:#3b495b"/><path d="M78.71,21.52h2.93v14.1H78.71Z" style="fill:#3b495b"/><path d="M84.89,32.68v-4.9H83.65V25.27h1.24V22.62h2.93v2.65h2.44v2.51H87.82V32.2c0,.68.29,1,1,1a3,3,0,0,0,1.45-.36v2.35a4.3,4.3,0,0,1-2.32.6C86.11,35.79,84.89,35.08,84.89,32.68Z" style="fill:#3b495b"/><path d="M91.8,32.64v0c0-2.26,1.72-3.31,4.18-3.31a7.41,7.41,0,0,1,2.53.43v-.18c0-1.21-.76-1.89-2.22-1.89a7.55,7.55,0,0,0-2.86.56L92.69,26a9.17,9.17,0,0,1,4-.83,4.78,4.78,0,0,1,3.5,1.16,4.51,4.51,0,0,1,1.12,3.3v6H98.49V34.5a4,4,0,0,1-3.13,1.31C93.41,35.81,91.8,34.69,91.8,32.64ZM98.55,32v-.52a4.46,4.46,0,0,0-1.88-.39c-1.25,0-2,.5-2,1.43v0c0,.79.66,1.25,1.61,1.25C97.62,33.78,98.55,33,98.55,32Z" style="fill:#3b495b"/><path d="M102.82,33.78l1.87-2.08a3.33,3.33,0,0,0,2.47,1.35c1.12,0,1.82-.68,1.82-2.24V22.1h3v8.84a4.9,4.9,0,0,1-1.28,3.62,4.81,4.81,0,0,1-3.51,1.25A5.51,5.51,0,0,1,102.82,33.78Z" style="fill:#66a5ad"/><path d="M114.14,33.65l1.75-2.11a6.2,6.2,0,0,0,4,1.64c1.22,0,1.95-.48,1.95-1.27v0c0-.75-.46-1.14-2.72-1.72-2.73-.69-4.48-1.45-4.48-4.13v0c0-2.45,2-4.08,4.73-4.08a7.82,7.82,0,0,1,5,1.72l-1.54,2.24a6.36,6.36,0,0,0-3.52-1.33c-1.14,0-1.74.52-1.74,1.18v0c0,.89.58,1.18,2.92,1.78,2.74.71,4.29,1.69,4.29,4v0c0,2.68-2,4.19-5,4.19A8.59,8.59,0,0,1,114.14,33.65Z" style="fill:#66a5ad"/><path d="M126.83,28.9v0a7.19,7.19,0,0,1,14.37,0v0a7.19,7.19,0,0,1-14.37,0Zm11.26,0v0a4.11,4.11,0,0,0-4.1-4.25,4,4,0,0,0-4.05,4.21v0A4.11,4.11,0,0,0,134,33.11,4,4,0,0,0,138.09,28.9Z" style="fill:#66a5ad"/><path d="M143.85,22.1h2.74l6.33,8.32V22.1h2.94V35.62h-2.53L146.78,27v8.6h-2.93Z" style="fill:#66a5ad"/><path d="M33.7,40.43,29.46,38v1.57H20.69v-7a3.79,3.79,0,0,0-2.76-4,3.79,3.79,0,0,0,2.76-4V18.79H26V17H18.84v6.75c0,2.33-.76,3.12-2.89,3.12h-.72v3.44H16c2.13,0,2.89.79,2.89,3.12v8H29.46v1.5Z" style="fill:#66a5ad"/><path d="M45.08,28.08c-2.14,0-2.89-.79-2.89-3.12V17H31.56V15.23l-4.23,2.45,4.23,2.44V18.79h8.77v7a3.8,3.8,0,0,0,2.76,4,3.8,3.8,0,0,0-2.76,4v5.77H35v1.82h7.15V34.64c0-2.33.75-3.12,2.89-3.12h.71V28.08Z" style="fill:#3b495b"/><polygon points="35.05 22.3 32.04 22.3 32.04 27.66 35.05 30.67 35.05 22.3" style="fill:#66a5ad"/><path d="M30.25,33.09a3.27,3.27,0,0,1-2.43-1.33L26,33.81a5.45,5.45,0,0,0,4.36,2,4.73,4.73,0,0,0,3.46-1.24A4.8,4.8,0,0,0,35.05,31v-.35l-3-3v3.22C32,32.42,31.36,33.09,30.25,33.09Z" style="fill:#3b495b"/></g></svg>